<?xml version="1.0" encoding="utf-8"?>
<!-- Generator: Adobe Illustrator 25.2.0, SVG Export Plug-In . SVG Version: 6.00 Build 0)  -->
<svg version="1.1" id="Ebene_1" xmlns="http://www.w3.org/2000/svg" xmlns:xlink="http://www.w3.org/1999/xlink" x="0px" y="0px"
	 viewBox="0 0 385.28 217.89" style="enable-background:new 0 0 385.28 217.89;" xml:space="preserve">
<style type="text/css">
	.st0{fill:none;}
	.st1{fill:#7EA19B;}
	.st2{fill:#020203;}
	.st3{fill:#020203;stroke:#000000;stroke-miterlimit:10;}
	.st4{fill:#FFFFFF;}
	.st5{fill:#1E1E1C;}
	.st6{fill:#F6F6F6;}
	.st7{fill:#F6F6F6;stroke:#F6F6F6;stroke-miterlimit:10;}
</style>
<g>
	<g>
		<path class="st0" d="M161.84,65.54c-0.29-0.18-0.58-0.38-0.87-0.55c-9.48-5.73-21.1-7.91-32.61-5.17
			c-11.14,2.65-20.51,9.46-26.39,19.18c-5.25,8.69-7.14,18.78-5.45,28.76c-0.79-8.37,1.08-16.7,5.48-23.99
			c0.96-1.58,2.02-3.08,3.17-4.49c5.5-8.4,13.9-14.28,23.83-16.61c13.26-3.12,26.7,0.76,36.34,9.22l1.6-1.6
			C165.36,68.56,163.66,66.98,161.84,65.54z"/>
		<path class="st0" d="M145.9,141.75c-5.17,1.23-10.37,1.49-15.39,0.91c5.19,0.96,10.64,0.9,16.06-0.37
			c6.24-1.47,11.86-4.38,16.49-8.47l-0.08-0.08c-1.01,0.73-2.06,1.41-3.14,2.03C155.64,138.52,150.95,140.55,145.9,141.75z"/>
		<path class="st0" d="M165.02,135.79l-0.8-0.8c-3.28,2.91-7.04,5.25-11.15,6.93C157.41,140.51,161.43,138.44,165.02,135.79z"/>
		<path class="st0" d="M129.22,63.57c-6.69,1.57-12.66,4.8-17.49,9.33c4.39-3.36,9.5-5.8,15.09-7.11
			c13.05-3.07,26.26,0.58,35.92,8.68l1.93-1.93c-1.79-1.56-3.7-2.97-5.73-4.2C150.3,63.11,139.7,61.11,129.22,63.57z"/>
		<path class="st0" d="M116.15,139.15c-1.66-1-3.25-2.12-4.77-3.33c-9.3-5.94-16.46-15.24-19.38-26.65c0-0.01-0.01-0.03-0.01-0.04
			c0.2,1.14,0.43,2.28,0.71,3.41c6.4,25.46,32.38,41.16,57.9,34.99c6.55-1.58,12.55-4.48,17.72-8.45l-2.13-2.13
			c-4.75,3.55-10.23,6.13-16.21,7.55C138.05,147.35,125.99,145.09,116.15,139.15z"/>
		<path class="st0" d="M144.22,57.01c-6.39-1.49-13.19-1.57-19.95,0.04c-5.06,1.2-9.76,3.27-13.94,6.06
			c-2.51,1.85-4.83,3.96-6.93,6.29c6-5.63,13.39-9.65,21.63-11.64C131.51,56.19,138.01,56.01,144.22,57.01z"/>
		<path class="st0" d="M92.91,108.94c2.05,8.02,6.24,14.98,11.81,20.41c-4.19-5.01-7.34-10.98-9.05-17.67
			c-2.94-11.53-1.2-23.44,4.9-33.54c6.1-10.1,15.84-17.18,27.42-19.93c0.71-0.17,1.43-0.32,2.14-0.45
			c-1.62,0.22-3.24,0.52-4.86,0.91c-11.7,2.83-21.64,9.8-28.23,19.71c-2.66,4.85-4.42,10.05-5.24,15.4
			C91.27,98.78,91.63,103.9,92.91,108.94z"/>
		<path class="st0" d="M114,142.7c-10.69-6.46-18.94-16.95-22.21-29.93c-1.6-6.37-1.89-12.84-0.93-19.12
			c0.13-1.19,0.3-2.37,0.52-3.54c-2.67,8.3-2.98,17.21-0.79,25.91c6.4,25.46,32.38,41.16,57.9,34.99
			c7.88-1.9,14.96-5.69,20.76-10.99l-0.27-0.27c-5.3,4.09-11.44,7.07-18.17,8.69C137.82,151.59,124.69,149.16,114,142.7z"/>
		<path class="st0" d="M99.22,113.68c2.94,11.38,10.7,20.38,20.55,25.35c8.02,3.11,16.99,3.92,25.91,1.8
			c0.47-0.11,0.94-0.24,1.41-0.37c-10.11,1.88-20.21-0.23-28.55-5.27c-8.85-5.35-15.71-14-18.47-24.67
			c-1.42-5.51-1.64-11.11-0.71-16.5C97.6,100.35,97.52,107.08,99.22,113.68z"/>
		<path class="st0" d="M125.66,49.23c-7.25,1.72-13.89,4.86-19.64,9.17c5.18-3.34,10.96-5.82,17.16-7.3
			c14.41-3.43,29.38-1.06,42.16,6.66c2.92,1.76,5.63,3.77,8.14,5.97l1.67-1.67c-2.61-2.37-5.48-4.5-8.57-6.37
			C154.18,48.2,139.65,45.9,125.66,49.23z"/>
		<path class="st0" d="M152.69,155.1c-14.41,3.43-29.38,1.06-42.16-6.66c-12.78-7.72-21.83-19.88-25.5-34.23
			c-1.58-6.18-2.07-12.45-1.52-18.59c-1.14,7.1-0.83,14.44,1.01,21.66c3.56,13.93,12.35,25.73,24.75,33.23
			c12.41,7.5,26.94,9.8,40.93,6.47c7.25-1.72,13.89-4.86,19.64-9.17C164.67,151.15,158.9,153.63,152.69,155.1z"/>
		<path class="st0" d="M127.37,55.19c-1.14,0.27-2.25,0.6-3.35,0.95c0.01,0,0.03-0.01,0.04-0.01c11.01-2.62,22.13-0.86,31.48,4.14
			c4.79,2.03,9.24,4.81,13.18,8.23l2.18-2.18c-2.29-2.07-4.77-3.91-7.4-5.5C153,54.49,140.13,52.11,127.37,55.19z"/>
		<path class="st0" d="M123.56,52.7c-13.31,3.17-24.61,11.08-32.02,22.36c-6.54,11.81-8.3,25.48-4.91,38.74
			c3.56,13.93,12.35,25.73,24.75,33.23c12.41,7.5,26.94,9.8,40.93,6.47c7.63-1.82,14.6-5.2,20.55-9.87l-2.94-2.94
			c-5.92,5.42-13.15,9.29-21.2,11.24c-13.01,3.14-26.14,0.71-36.83-5.75c-10.69-6.46-18.94-16.95-22.21-29.93
			c-2.95-11.71-1.47-23.8,4.15-34.33c0.85-2.06,1.85-4.07,3.03-6.01c3.32-5.49,7.73-10.08,12.92-13.56
			c5.11-3.77,10.98-6.53,17.36-8.07c16.29-3.94,32.76,0.87,44.41,11.38l0.76-0.76c-2.42-2.11-5.02-4.03-7.83-5.73
			C152.08,51.67,137.54,49.38,123.56,52.7z"/>
		<path class="st1" d="M146.94,143.89c-10.82,2.54-21.76,0.47-30.69-4.92c-1.06-0.64-2.09-1.33-3.09-2.06
			c-0.28-0.16-0.57-0.32-0.84-0.48c-0.32-0.19-0.63-0.4-0.95-0.6c1.52,1.21,3.11,2.32,4.77,3.33c9.84,5.95,21.9,8.21,33.84,5.37
			c5.98-1.42,11.46-4,16.21-7.55l-1.17-1.17c-3.59,2.65-7.61,4.72-11.95,6.14C151.1,142.73,149.06,143.4,146.94,143.89z"/>
		<path class="st2" d="M127.15,54.28c-6.38,1.54-12.25,4.3-17.36,8.07c-5.19,3.48-9.6,8.06-12.92,13.56
			c-1.17,1.94-2.18,3.95-3.03,6.01c0.41-0.78,0.84-1.55,1.3-2.3c2.31-3.82,5.1-7.24,8.27-10.22c2.1-2.33,4.42-4.44,6.93-6.29
			c4.18-2.79,8.87-4.86,13.94-6.06c6.76-1.61,13.56-1.52,19.95-0.04c3.91,0.63,7.71,1.73,11.31,3.26c-9.35-5-20.47-6.76-31.48-4.14
			c-0.01,0-0.03,0.01-0.04,0.01c1.1-0.35,2.22-0.68,3.35-0.95c12.76-3.08,25.63-0.7,36.12,5.64c2.63,1.59,5.11,3.43,7.4,5.5
			l0.66-0.66C159.91,55.14,143.44,50.34,127.15,54.28z"/>
		<path class="st2" d="M172.87,143.63c-5.96,4.67-12.92,8.06-20.55,9.87c-13.99,3.33-28.52,1.03-40.93-6.47
			c-12.41-7.5-21.2-19.3-24.75-33.23c-3.39-13.26-1.63-26.93,4.91-38.74c7.41-11.28,18.7-19.19,32.02-22.36
			c13.99-3.33,28.52-1.03,40.93,6.47c2.8,1.69,5.41,3.62,7.83,5.73l1.17-1.17c-2.51-2.2-5.22-4.21-8.14-5.97
			c-12.78-7.72-27.75-10.09-42.16-6.66c-6.21,1.48-11.98,3.96-17.16,7.3c5.75-4.31,12.4-7.45,19.64-9.17
			c13.99-3.33,28.52-1.03,40.93,6.47c3.09,1.87,5.95,4,8.57,6.37l1.17-1.17c-2.71-2.46-5.68-4.67-8.88-6.61
			c-12.78-7.72-27.75-10.09-42.16-6.66c-14.41,3.43-26.54,12.24-34.14,24.82c-0.35,0.58-0.68,1.17-1.01,1.76
			c-0.37,0.57-0.74,1.13-1.09,1.71c-7.6,12.58-9.77,27.41-6.1,41.77c3.66,14.35,12.72,26.51,25.5,34.23
			c12.78,7.72,27.75,10.09,42.16,6.66c9.27-2.2,17.58-6.64,24.36-12.87L172.87,143.63z M150.21,156.98
			c-13.99,3.33-28.52,1.03-40.93-6.47c-12.41-7.5-21.2-19.3-24.75-33.23c-1.84-7.22-2.15-14.56-1.01-21.66
			c-0.55,6.14-0.06,12.41,1.52,18.59c3.66,14.35,12.72,26.51,25.5,34.23c12.78,7.72,27.75,10.09,42.16,6.66
			c6.2-1.48,11.98-3.96,17.16-7.3C164.1,152.12,157.46,155.26,150.21,156.98z"/>
		<path class="st2" d="M129.01,62.65c-9.93,2.33-18.33,8.21-23.83,16.61c-1.15,1.41-2.21,2.91-3.17,4.49
			c-4.4,7.28-6.27,15.62-5.48,23.99c0.2,2.12,0.56,4.23,1.1,6.34c1.74,6.74,5.1,12.68,9.57,17.5c-0.85-0.72-1.68-1.46-2.48-2.24
			c-5.57-5.44-9.76-12.39-11.81-20.41c-1.29-5.04-1.64-10.16-1.11-15.15c0.82-5.35,2.58-10.55,5.24-15.4
			c-0.37,0.56-0.74,1.13-1.09,1.71c-1.93,3.19-3.44,6.55-4.55,10.01c-0.23,1.17-0.4,2.35-0.52,3.54
			c-0.97,6.28-0.68,12.76,0.93,19.12c3.26,12.98,11.52,23.47,22.21,29.93c10.69,6.46,23.81,8.89,36.83,5.75
			c6.72-1.62,12.87-4.6,18.17-8.69l-0.67-0.67c-5.17,3.97-11.17,6.86-17.72,8.45c-25.52,6.17-51.49-9.53-57.9-34.99
			c-0.29-1.13-0.51-2.27-0.71-3.41c0,0.01,0.01,0.03,0.01,0.04c2.91,11.41,10.08,20.71,19.38,26.65c0.32,0.2,0.63,0.41,0.95,0.6
			c0.28,0.17,0.56,0.32,0.84,0.48c1,0.73,2.03,1.42,3.09,2.06c8.93,5.4,19.87,7.47,30.69,4.92c2.12-0.5,4.16-1.16,6.13-1.97
			c4.11-1.69,7.88-4.02,11.15-6.93l-1.17-1.17c-4.63,4.09-10.25,7-16.49,8.47c-5.42,1.27-10.87,1.33-16.06,0.37
			c5.02,0.58,10.22,0.32,15.39-0.91c5.05-1.2,9.74-3.23,13.93-5.98c1.08-0.63,2.13-1.31,3.14-2.03l-0.81-0.81
			c-0.92,0.72-1.86,1.4-2.83,2.04c-3.25,1.88-6.8,3.3-10.58,4.19c-20.96,4.93-42.39-8.02-47.77-28.87
			c-2.15-8.31-1.5-16.84,1.77-24.53c0.21-0.38,0.43-0.77,0.65-1.15c5.28-8.74,13.73-14.86,23.78-17.22
			c10.39-2.44,20.89-0.45,29.46,4.73c1.73,1.04,3.37,2.22,4.92,3.51l1.17-1.17c-9.66-8.09-22.88-11.75-35.92-8.68
			c-5.59,1.31-10.7,3.75-15.09,7.11c4.83-4.54,10.8-7.76,17.49-9.33c10.48-2.46,21.07-0.46,29.72,4.77c2.03,1.23,3.94,2.63,5.73,4.2
			l0.67-0.67C155.71,63.42,142.27,59.54,129.01,62.65z M100.08,110.52c2.75,10.67,9.61,19.32,18.47,24.67
			c8.34,5.04,18.44,7.15,28.55,5.27c-0.47,0.13-0.93,0.26-1.41,0.37c-8.91,2.12-17.89,1.3-25.91-1.8
			c-9.85-4.98-17.62-13.98-20.55-25.35c-1.7-6.6-1.62-13.33,0.14-19.66C98.44,99.42,98.65,105.01,100.08,110.52z"/>
		<path class="st2" d="M163.37,65.57c-0.65-0.44-1.31-0.86-1.98-1.27c-2-1.21-4.08-2.27-6.23-3.18c0.67,0.36,1.34,0.74,1.99,1.13
			c1.63,0.99,3.2,2.09,4.7,3.28c1.81,1.44,3.52,3.02,5.09,4.74l0.67-0.67C166.28,68.17,164.86,66.83,163.37,65.57z"/>
		<path class="st1" d="M144.22,57.01c-6.21-1-12.71-0.82-19.18,0.74c-8.25,1.99-15.63,6.01-21.63,11.64
			c-3.17,2.98-5.96,6.39-8.27,10.22c-0.46,0.76-0.89,1.53-1.3,2.3c-5.61,10.53-7.09,22.62-4.15,34.33
			c3.26,12.98,11.52,23.47,22.21,29.93c10.69,6.46,23.81,8.89,36.83,5.75c8.05-1.94,15.28-5.82,21.2-11.24l-0.67-0.67
			c-5.8,5.3-12.88,9.09-20.76,10.99c-25.52,6.17-51.49-9.53-57.9-34.99c-2.19-8.7-1.88-17.61,0.79-25.91
			c1.11-3.46,2.63-6.82,4.55-10.01c0.35-0.58,0.72-1.15,1.09-1.71c6.58-9.92,16.53-16.89,28.23-19.71c1.62-0.39,3.24-0.69,4.86-0.91
			c-0.71,0.13-1.43,0.28-2.14,0.45c-11.57,2.75-21.31,9.83-27.42,19.93c-6.1,10.1-7.84,22.01-4.9,33.54
			c1.71,6.69,4.87,12.67,9.05,17.67c0.8,0.78,1.63,1.52,2.48,2.24c-4.46-4.82-7.83-10.76-9.57-17.5c-0.54-2.1-0.91-4.22-1.1-6.34
			c-1.69-9.97,0.2-20.06,5.45-28.76c5.87-9.72,15.25-16.53,26.39-19.18c11.51-2.74,23.13-0.56,32.61,5.17
			c0.29,0.18,0.58,0.37,0.87,0.55c-1.5-1.19-3.06-2.29-4.7-3.28c-0.65-0.4-1.32-0.77-1.99-1.13c2.15,0.91,4.23,1.97,6.23,3.18
			c0.67,0.41,1.33,0.83,1.98,1.27c1.49,1.25,2.91,2.6,4.24,4.04l1.11-1.11c-3.93-3.41-8.38-6.2-13.18-8.23
			C151.93,58.75,148.13,57.64,144.22,57.01z"/>
	</g>
	<g>
		<path class="st3" d="M153.14,118.1c-2.4,2.37-5.43,4.04-8.85,4.82c-1.41,0.32-2.84,0.48-4.26,0.48c-3.5,0-6.97-0.97-10.07-2.84
			l0,0c-4.36-2.64-7.47-6.75-8.75-11.59c-1.29-4.88-0.58-9.9,1.98-14.15c2.57-4.25,6.69-7.21,11.61-8.34
			c6.63-1.52,13.39,0.67,17.98,5.2l-2.78,3.1c-0.89-0.9-1.9-1.7-3.02-2.37l0,0c-2.44-1.47-5.17-2.23-7.91-2.23
			c-1.11,0-2.23,0.12-3.34,0.38c-3.8,0.87-6.99,3.15-8.97,6.43s-2.52,7.16-1.52,10.93c2.08,7.85,10.21,12.76,18.12,10.96
			c2.64-0.6,4.98-1.89,6.83-3.71"/>
	</g>
	<g>
		<path d="M202.41,70.46c-0.05-0.7-0.7-1.16-1.43-1.16c-1.86,0-2.15,2.92-2.15,4.28c0,1.38,0.26,4.38,2.15,4.38
			c0.73,0,1.38-0.51,1.43-1.26h1.76c0,1.72-1.48,2.87-3.12,2.87c-3.12,0-3.97-3.38-3.97-5.9c0-2.66,0.85-5.97,3.97-5.97
			c1.64,0,3.12,1.11,3.12,2.76H202.41z"/>
		<path d="M211.02,72.57h4.5v1.6h-4.5v3.63h5.37v1.6h-7.13V67.85h6.93v1.6h-5.17V72.57z"/>
		<path d="M226.8,67.85h1.6v11.57h-1.91l-4.13-8.75h-0.03v8.75h-1.6V67.85h2.05l3.99,8.39h0.03V67.85z"/>
		<path d="M237.45,79.41h-1.76v-9.96h-3.12v-1.6h8v1.6h-3.12V79.41z"/>
		<path d="M246.89,79.41h-1.76V67.85h3.36c2.12,0,3.74,1.09,3.74,3.38c0,1.45-0.8,2.76-2.3,3.04l3.02,5.15h-2.01l-2.64-4.79h-1.4
			V79.41z M248.18,73.02c1.42,0,2.29-0.34,2.29-1.86c0-1.52-1.06-1.71-2.3-1.71h-1.28v3.57H248.18z"/>
		<path d="M259.07,72.57h4.5v1.6h-4.5v3.63h5.37v1.6h-7.13V67.85h6.93v1.6h-5.17V72.57z"/>
		<path d="M287.17,68.44c0,0.44-0.21,0.67-0.63,0.67c-0.15,0-0.28-0.05-0.38-0.15c-0.11-0.1-0.16-0.21-0.16-0.33
			c0-0.09,0.07-0.22,0.22-0.39c0.04-0.09,0.07-0.17,0.07-0.22c0-0.28-0.24-0.43-0.72-0.43c-0.5,0-0.9,0.21-1.21,0.64
			c-0.31,0.43-0.69,1.29-1.16,2.59l-0.46,1.29h1.76c0.06,0,0.13,0,0.22,0c0.12,0,0.19,0.06,0.19,0.18c0,0.12-0.08,0.18-0.24,0.18h-2
			l-1.48,4.06c-1.07,2.92-2.11,4.97-3.12,6.13c-0.41,0.47-0.79,0.79-1.13,0.98c-0.35,0.19-0.76,0.28-1.24,0.28
			c-0.97,0-1.45-0.32-1.45-0.97c0-0.47,0.25-0.7,0.75-0.7c0.34,0,0.51,0.14,0.51,0.43c0,0.09-0.06,0.21-0.17,0.36
			c-0.07,0.08-0.1,0.16-0.1,0.22c0,0.25,0.17,0.38,0.51,0.38c0.59,0,1.1-0.29,1.52-0.86c0.33-0.46,0.76-1.45,1.3-2.97l2.58-7.35
			h-0.39h-0.85c-0.09,0.05-0.19,0.07-0.31,0.07c-0.14,0-0.2-0.04-0.2-0.13c0-0.16,0.14-0.26,0.43-0.3c0.02,0,0.23,0,0.61,0h0.61
			h0.24c0.68-1.62,1.24-2.73,1.67-3.32c0.72-0.96,1.62-1.44,2.71-1.44c0.46,0,0.82,0.1,1.1,0.3
			C287.03,67.85,287.17,68.11,287.17,68.44z"/>
		<path d="M290.36,74.82c0,1.33-0.61,2.53-1.83,3.6c-0.96,0.84-1.95,1.26-2.99,1.26c-0.71,0-1.29-0.24-1.74-0.73
			c-0.46-0.49-0.68-1.12-0.68-1.89c0-0.66,0.19-1.34,0.56-2.03c0.38-0.69,0.88-1.29,1.5-1.77c0.98-0.76,1.92-1.14,2.83-1.14
			c0.69,0,1.26,0.25,1.69,0.75S290.36,74.02,290.36,74.82z M289.05,73.71c0-0.86-0.39-1.3-1.16-1.3c-0.94,0-1.76,0.68-2.46,2.03
			c-0.66,1.3-0.99,2.51-0.99,3.65c0,0.85,0.38,1.28,1.14,1.28c0.96,0,1.75-0.61,2.39-1.84C288.69,76.15,289.05,74.87,289.05,73.71z"
			/>
		<path d="M297.32,72.86c0,0.23-0.07,0.42-0.22,0.59c-0.15,0.17-0.32,0.25-0.51,0.25c-0.18,0-0.27-0.06-0.27-0.19l0.03-0.17
			c0.02-0.07,0.03-0.13,0.03-0.19c0-0.27-0.14-0.41-0.41-0.41c-0.33,0-0.79,0.32-1.38,0.96c-0.59,0.64-1.15,1.53-1.67,2.68
			l-1.23,2.7c-0.11,0.26-0.21,0.39-0.29,0.39c-0.23-0.03-0.4-0.05-0.53-0.05c-0.19,0-0.35,0.02-0.46,0.05h-0.1
			c-0.1,0-0.15-0.02-0.15-0.07c0-0.01,0.02-0.03,0.05-0.07l0.09-0.17l2.88-6.57c0-0.09-0.07-0.14-0.22-0.14c0.01,0-0.01,0-0.07,0
			c-0.04,0.01-0.12,0.02-0.22,0.02h-0.17c-0.17,0-0.26-0.04-0.26-0.12c0-0.07,0.29-0.11,0.89-0.14s0.99-0.07,1.19-0.15
			c0.09-0.02,0.14-0.03,0.15-0.03c0.07,0,0.1,0.03,0.1,0.1c0,0.06-0.07,0.27-0.22,0.63l-0.63,1.54c1.05-1.46,1.97-2.18,2.76-2.18
			C297.05,72.11,297.32,72.36,297.32,72.86z"/>
		<path d="M197.22,86.92h1.09c3.45,0,6.06,2.52,6.06,6.02c0,3.51-2.46,5.54-5.83,5.54h-1.31V86.92z M198.98,96.88
			c2.32,0.05,3.63-1.79,3.63-3.98c0-2.08-1.42-4.28-3.63-4.38V96.88z"/>
		<path d="M213.43,96.88h2.08v1.6h-5.92v-1.6h2.08v-8.36h-1.74v-1.6h5.22v1.6h-1.72V96.88z"/>
		<path d="M224.23,93.89v-1.6h4.15v5.65c-1.02,0.43-2.22,0.7-3.33,0.7c-3.5,0-4.45-2.99-4.45-5.95c0-3.1,1.02-5.92,4.62-5.92
			c1.69,0,3.16,1.16,3.16,2.34v0.14h-1.76c-0.17-0.68-0.63-0.87-1.4-0.87c-2.46,0-2.87,1.98-2.87,4.16c0,2.03,0.29,4.5,2.85,4.5
			c0.51,0,0.97-0.1,1.42-0.27v-2.87H224.23z"/>
		<path d="M237.45,96.88h2.08v1.6h-5.92v-1.6h2.08v-8.36h-1.74v-1.6h5.22v1.6h-1.72V96.88z"/>
		<path d="M249.46,98.48h-1.76v-9.96h-3.12v-1.6h8v1.6h-3.12V98.48z"/>
		<path d="M258.92,95.16l-0.82,3.33h-1.77l3.16-11.57h2.23l3.16,11.57h-1.77l-0.84-3.33H258.92z M260.62,88.54h-0.03l-1.26,5.02
			h2.54L260.62,88.54z"/>
		<path d="M276.97,96.88v1.6h-7.68V86.92h1.76v9.96H276.97z"/>
		<path d="M201.91,105.99h2.71v11.57h-1.76v-9.64h-0.03l-1.59,5.89h-1.4l-1.59-5.89h-0.03v9.64h-1.76v-11.57h2.71l1.35,4.45h0.03
			L201.91,105.99z"/>
		<path d="M210.41,105.99v7.58c0,1.62,0.39,2.54,2.15,2.54c1.76,0,2.15-0.92,2.15-2.54v-7.58h1.76v7.69c0,2.51-1.21,4.03-3.91,4.03
			c-2.71,0-3.91-1.52-3.91-4.03v-7.69H210.41z"/>
		<path d="M220.92,114.7v-0.36h1.76c0.02,1.09,0.78,1.76,1.88,1.76c0.99,0,1.91-0.48,1.91-1.6c0-1.26-1.31-1.76-2.63-2.37
			c-1.31-0.63-2.64-1.36-2.64-3.09c0-2,1.65-3.21,3.57-3.21c1.59,0,3.34,1.11,3.34,2.85v0.22h-1.76c0.07-0.97-0.7-1.47-1.62-1.47
			s-1.77,0.36-1.77,1.45c0,0.84,0.67,1.28,1.33,1.59l1.02,0.48c1.57,0.75,2.92,1.57,2.92,3.53c0,2.03-1.76,3.22-3.67,3.22
			C222.81,117.71,220.92,116.61,220.92,114.7z"/>
		<path d="M237.45,115.95h2.08v1.6h-5.92v-1.6h2.08v-8.36h-1.74v-1.6h5.22v1.6h-1.72V115.95z"/>
		<path d="M250.45,108.6c-0.05-0.7-0.7-1.16-1.43-1.16c-1.86,0-2.15,2.92-2.15,4.28c0,1.38,0.26,4.38,2.15,4.38
			c0.73,0,1.38-0.51,1.43-1.26h1.76c0,1.72-1.48,2.87-3.12,2.87c-3.12,0-3.97-3.38-3.97-5.9c0-2.66,0.85-5.97,3.97-5.97
			c1.64,0,3.12,1.11,3.12,2.76H250.45z"/>
		<path d="M197.22,125.06h1.09c3.45,0,6.06,2.52,6.06,6.02c0,3.51-2.46,5.54-5.83,5.54h-1.31V125.06z M198.98,135.02
			c2.32,0.05,3.63-1.79,3.63-3.98c0-2.08-1.42-4.28-3.63-4.38V135.02z"/>
		<path d="M216.65,130.82c0,2.54-1.14,5.95-4.09,5.95s-4.09-3.41-4.09-5.95c0-2.34,1.16-5.92,4.09-5.92
			C215.49,124.9,216.65,128.49,216.65,130.82z M210.22,130.91c0,1.45,0.32,4.26,2.34,4.26c2,0,2.34-2.81,2.34-4.26
			c0-1.48-0.31-4.4-2.34-4.4C210.51,126.51,210.22,129.42,210.22,130.91z"/>
		<path d="M226.43,127.67c-0.05-0.7-0.7-1.16-1.43-1.16c-1.86,0-2.15,2.92-2.15,4.28c0,1.38,0.26,4.38,2.15,4.38
			c0.73,0,1.38-0.51,1.43-1.26h1.76c0,1.72-1.48,2.87-3.12,2.87c-3.12,0-3.97-3.38-3.97-5.9c0-2.66,0.85-5.97,3.97-5.97
			c1.64,0,3.12,1.11,3.12,2.76H226.43z"/>
		<path d="M234.43,125.06v7.57c0,1.62,0.39,2.54,2.15,2.54c1.76,0,2.15-0.92,2.15-2.54v-7.57h1.76v7.69c0,2.51-1.21,4.03-3.91,4.03
			c-2.71,0-3.91-1.52-3.91-4.03v-7.69H234.43z"/>
		<path d="M249.96,125.06h2.71v11.57h-1.76v-9.64h-0.03l-1.59,5.89h-1.4l-1.59-5.89h-0.03v9.64h-1.76v-11.57h2.71l1.35,4.45h0.03
			L249.96,125.06z"/>
		<path d="M259.07,129.78h4.5v1.6h-4.5v3.63h5.37v1.6h-7.13v-11.57h6.93v1.6h-5.17V129.78z"/>
		<path d="M274.85,125.06h1.6v11.57h-1.91l-4.13-8.75h-0.03v8.75h-1.6v-11.57h2.05l3.99,8.39h0.03V125.06z"/>
		<path d="M285.5,136.62h-1.76v-9.96h-3.12v-1.6h8v1.6h-3.12V136.62z"/>
		<path d="M294.95,133.3l-0.82,3.33h-1.77l3.16-11.57h2.23l3.16,11.57h-1.77l-0.84-3.33H294.95z M296.66,126.68h-0.03l-1.26,5.02
			h2.54L296.66,126.68z"/>
		<path d="M309.52,136.62h-1.76v-9.96h-3.12v-1.6h8v1.6h-3.12V136.62z"/>
		<path d="M321.53,135.02h2.08v1.6h-5.92v-1.6h2.08v-8.36h-1.74v-1.6h5.22v1.6h-1.72V135.02z"/>
		<path d="M336.77,130.82c0,2.54-1.14,5.95-4.09,5.95s-4.09-3.41-4.09-5.95c0-2.34,1.16-5.92,4.09-5.92
			C335.61,124.9,336.77,128.49,336.77,130.82z M330.34,130.91c0,1.45,0.32,4.26,2.34,4.26c2,0,2.34-2.81,2.34-4.26
			c0-1.48-0.31-4.4-2.34-4.4C330.63,126.51,330.34,129.42,330.34,130.91z"/>
		<path d="M346.92,125.06h1.6v11.57h-1.91l-4.13-8.75h-0.03v8.75h-1.6v-11.57h2.05l3.99,8.39h0.03V125.06z"/>
	</g>
	<g>
		<rect x="196.38" y="29.83" class="st5" width="152.68" height="2.49"/>
	</g>
	<g>
		<rect x="30.94" y="181.68" class="st5" width="152.68" height="2.49"/>
	</g>
</g>
</svg>
